<svg viewBox="0 0 910 610"
    xmlns="http://www.w3.org/2000/svg">

  <!-- top left -->
  <line x1="60" y1="0" x2="60" y2="50" stroke-width="3" stroke="white"/>
  <line x1="60" y1="0" x2="60" y2="50" stroke-width="1" stroke="black"/>

 <!-- left top -->
  <line x1="0" y1="60" x2="50" y2="60" stroke-width="3" stroke="white"/>
  <line x1="0" y1="60" x2="50" y2="60" stroke-width="1" stroke="black"/>

  <!-- top right -->
  <line x1="850" y1="0" x2="850" y2="50" stroke-width="3" stroke="white"/>
  <line x1="850" y1="0" x2="850" y2="50" stroke-width="1" stroke="black"/>

  <!-- right top -->
  <line x1="860" y1="60" x2="910" y2="60" stroke-width="3" stroke="white"/>
  <line x1="860" y1="60" x2="910" y2="60" stroke-width="1" stroke="black"/>

  <!-- bottom left -->
  <line x1="60" y1="610" x2="60" y2="560" stroke-width="3" stroke="white"/>
  <line x1="60" y1="610" x2="60" y2="560" stroke-width="1" stroke="black"/>

  <!-- left bottom -->
  <line x1="0" y1="550" x2="50" y2="550" stroke-width="3" stroke="white"/>
  <line x1="0" y1="550" x2="50" y2="550" stroke-width="1" stroke="black"/>


  <!-- bottom right -->
  <line x1="850" y1="610" x2="850" y2="560" stroke-width="3" stroke="white"/>
  <line x1="850" y1="610" x2="850" y2="560" stroke-width="1" stroke="black"/>

  <!-- right bottom -->
  <line x1="860" y1="550" x2="910" y2="550" stroke-width="3" stroke="white"/>
  <line x1="860" y1="550" x2="910" y2="550" stroke-width="1" stroke="black"/>

</svg>
